<?xml version="1.0" encoding="UTF-8"?><svg id="Icons" xmlns="http://www.w3.org/2000/svg" viewBox="0 0 300 300"><defs><style>.cls-1{fill:#00517d;}.cls-2{fill:#06aeef;}</style></defs><path class="cls-1" d="m206.41,114.3h-48.03c-.92,0-1.72.63-1.94,1.53l-4.97,20.58h-57.88c-1.1,0-2,.9-2,2v58.69c0,1.11.9,2,2,2h54.41v12.11h4v-12.11h54.41c1.1,0,2-.89,2-2v-80.8c0-1.1-.9-2-2-2Zm-2,80.8h-108.82v-54.69h57.46c.92,0,1.73-.63,1.94-1.53l4.97-20.58h44.45v76.8Z"/><path class="cls-1" d="m57,217.97h84.23v4H57c-1.1,0-2-.89-2-2s.9-2,2-2Z"/><path class="cls-1" d="m245,219.97c0,1.11-.9,2-2,2h-84.24v-4h84.24c1.1,0,2,.9,2,2Z"/><rect class="cls-2" x="141.23" y="211.21" width="17.53" height="17.53"/><path class="cls-2" d="m103.69,129.95c-1.1,0-2-.9-2-2v-37.48c0-1.1.9-2,2-2h71.64c1.1,0,2,.9,2,2v15.8c0,1.1-.9,2-2,2s-2-.9-2-2v-13.8h-67.64v35.48c0,1.1-.9,2-2,2Z"/><path class="cls-2" d="m162.2,104.84h-49.09c-1.1,0-2-.9-2-2s.9-2,2-2h49.09c1.1,0,2,.9,2,2s-.9,2-2,2Z"/><path class="cls-2" d="m143.47,116.28h-30.36c-1.1,0-2-.9-2-2s.9-2,2-2h30.36c1.1,0,2,.9,2,2s-.9,2-2,2Z"/></svg>