<?xml version="1.0" encoding="UTF-8"?><svg id="b" xmlns="http://www.w3.org/2000/svg" viewBox="0 0 300 300"><defs><style>.c{fill:#06aeef;}.c,.d{stroke-width:0px;}.d{fill:#00517d;}</style></defs><path class="d" d="M232.03,93.21H67.97c-5,0-9.07,4.07-9.07,9.07v95.44c0,5,4.07,9.07,9.07,9.07h164.07c5,0,9.07-4.07,9.07-9.07v-95.44c0-5-4.07-9.07-9.07-9.07ZM62.9,118.46h174.21v61.81H62.9v-61.81ZM67.97,97.21h164.07c2.79,0,5.07,2.27,5.07,5.07v12.18H62.9v-12.18c0-2.79,2.27-5.07,5.07-5.07ZM232.03,202.79H67.97c-2.79,0-5.07-2.27-5.07-5.07v-13.45h174.21v13.45c0,2.79-2.27,5.07-5.07,5.07Z"/><path class="c" d="M113.49,142.73h-42.99c-1.1,0-2-.9-2-2s.9-2,2-2h42.99c1.1,0,2,.9,2,2s-.9,2-2,2Z"/><path class="c" d="M113.49,159.99h-42.99c-1.1,0-2-.9-2-2s.9-2,2-2h42.99c1.1,0,2,.9,2,2s-.9,2-2,2Z"/><path class="c" d="M78.87,109.5c-1.1,0-2-.9-2-2v-3.95c0-1.1.9-2,2-2s2,.9,2,2v3.95c0,1.1-.9,2-2,2Z"/><path class="c" d="M96.19,109.5c-1.1,0-2-.9-2-2v-3.95c0-1.1.9-2,2-2s2,.9,2,2v3.95c0,1.1-.9,2-2,2Z"/><path class="c" d="M113.49,109.5c-1.1,0-2-.9-2-2v-3.95c0-1.1.9-2,2-2s2,.9,2,2v3.95c0,1.1-.9,2-2,2Z"/><path class="c" d="M130.41,109.5c-1.1,0-2-.9-2-2v-3.95c0-1.1.9-2,2-2s2,.9,2,2v3.95c0,1.1-.9,2-2,2Z"/><path class="c" d="M144.2,142.21c-4.03,0-7.3,3.28-7.3,7.3s3.28,7.3,7.3,7.3,7.3-3.28,7.3-7.3-3.28-7.3-7.3-7.3ZM144.2,152.81c-1.82,0-3.3-1.48-3.3-3.3s1.48-3.3,3.3-3.3,3.3,1.48,3.3,3.3-1.48,3.3-3.3,3.3Z"/><path class="c" d="M229.28,148.15l-6.47-7.02c-.38-.41-.91-.64-1.47-.64h-4.72l-5.44-5.83c-.39-.42-.93-.64-1.5-.64-.57.01-1.11.26-1.48.7l-3.89,4.52-4.07-4.55c-.38-.42-.91-.66-1.47-.67h-.02c-.56,0-1.09.23-1.47.64l-4.25,4.58-4.36-4.6c-.38-.4-.9-.62-1.44-.62-.52,0-1.07.22-1.45.61l-5.76,5.97h-13.02c-3.36-7.14-10.6-12.1-19-12.1-11.58,0-21.01,9.43-21.01,21.01s9.43,21.01,21.01,21.01c8.71,0,16.19-5.33,19.38-12.89h54.4c.54,0,1.05-.21,1.42-.6l6.03-6.12c.75-.76.77-1.97.05-2.76ZM148,166.52c-9.38,0-17.01-7.63-17.01-17.01s7.63-17.01,17.01-17.01c7.06,0,13.13,4.33,15.7,10.47.04.21.12.41.22.59.7,1.86,1.1,3.86,1.1,5.95,0,9.38-7.63,17.01-17.01,17.01ZM220.94,153.63h-52.34c.27-1.33.41-2.71.41-4.12,0-1.69-.22-3.33-.6-4.91h12.46c.54,0,1.06-.22,1.44-.61l4.89-5.08,4.39,4.63c.38.4.91.64,1.46.62.55,0,1.08-.23,1.46-.64l4.21-4.53,4.13,4.62c.38.42.92.67,1.49.67h.02c.58,0,1.12-.26,1.5-.7l3.92-4.56,4.51,4.84c.38.41.91.64,1.46.64h4.72l4.58,4.97-4.11,4.17Z"/></svg>