<?xml version="1.0" encoding="UTF-8"?><svg id="b" xmlns="http://www.w3.org/2000/svg" viewBox="0 0 300 300"><defs><style>.c{fill:#06aeef;}.c,.d{stroke-width:0px;}.d{fill:#00517d;}</style></defs><path class="c" d="M150,226.22c-18.95,0-37.9-7.08-52.67-21.23-.37-.36-.59-.85-.61-1.36-.02-.51-.03-1.01-.03-1.53,0-8.94,3.48-17.34,9.8-23.65,6.32-6.32,14.72-9.8,23.65-9.8h39.72c18.44,0,33.45,15.01,33.45,33.45,0,.51-.01,1.01-.03,1.52-.02.52-.24,1-.61,1.36-14.76,14.16-33.71,21.24-52.66,21.24ZM100.69,202.66c27.82,26.08,70.82,26.08,98.61,0,0-.19,0-.37,0-.56,0-16.24-13.21-29.45-29.45-29.45h-39.72c-7.87,0-15.26,3.06-20.83,8.62-5.56,5.56-8.62,12.96-8.62,20.83,0,.19,0,.38,0,.57ZM201.28,203.53h0,0Z"/><path class="d" d="M150,226.22c-18.95,0-37.89-7.08-52.66-21.23-.4-.39-.78-.76-1.17-1.15-29.67-29.68-29.67-77.98,0-107.67,14.38-14.38,33.5-22.3,53.83-22.3s39.45,7.92,53.83,22.3c14.38,14.38,22.31,33.5,22.31,53.83s-7.92,39.46-22.31,53.83h0s0,0,0,0c-.38.38-.76.75-1.15,1.13-14.77,14.17-33.72,21.25-52.68,21.25ZM150,77.87c-19.27,0-37.38,7.5-51,21.13-28.12,28.12-28.12,73.89,0,102.01.37.37.75.74,1.12,1.1,27.98,26.82,71.81,26.81,99.78-.02.36-.35.74-.72,1.1-1.08h0c13.63-13.62,21.13-31.74,21.13-51.01s-7.5-37.38-21.13-51.01c-13.62-13.62-31.73-21.13-51-21.13Z"/><path class="c" d="M149.52,159.73c-18.17,0-32.95-14.78-32.95-32.95s14.78-32.95,32.95-32.95,32.95,14.78,32.95,32.95-14.78,32.95-32.95,32.95ZM149.52,97.83c-15.96,0-28.95,12.99-28.95,28.95s12.99,28.95,28.95,28.95,28.95-12.99,28.95-28.95-12.99-28.95-28.95-28.95Z"/></svg>