<?xml version="1.0" encoding="UTF-8"?><svg id="b" xmlns="http://www.w3.org/2000/svg" viewBox="0 0 300 300"><defs><style>.c{fill:#06aeef;}.c,.d{stroke-width:0px;}.d{fill:#00517d;}</style></defs><path class="d" d="M202.16,217.56h-108.35c-7.16,0-12.99-5.83-12.99-12.99v-108.35c0-7.16,5.83-12.99,12.99-12.99h67.75c1.1,0,2,.9,2,2s-.9,2-2,2h-67.75c-4.96,0-8.99,4.03-8.99,8.99v108.35c0,4.96,4.03,8.99,8.99,8.99h108.35c4.96,0,8.99-4.03,8.99-8.99v-29.45c0-1.1.9-2,2-2s2,.9,2,2v29.45c0,7.16-5.83,12.99-12.99,12.99Z"/><path class="c" d="M184.54,177.12c-.25,0-.5-.05-.74-.14-.76-.3-1.26-1.04-1.26-1.86v-29.78c-35.86.88-64.53,25.06-64.82,25.31-.64.55-1.56.64-2.29.22-.73-.42-1.12-1.25-.98-2.08,3.55-20.13,13.39-46.34,40.16-56.9,12.41-4.9,23.79-4.59,28.56-4.16v-28.48c0-.82.5-1.56,1.27-1.86.76-.3,1.63-.11,2.2.49l44.85,47.94c.72.77.72,1.97,0,2.74l-45.47,47.94c-.39.41-.91.62-1.45.62ZM184.54,141.31c1.1,0,2,.9,2,2v26.79l40.72-42.93-40.1-42.87v25.67c0,.59-.26,1.15-.71,1.53-.45.38-1.04.54-1.63.44-.14-.02-13.93-2.25-28.91,3.72-18.73,7.46-30.99,23.8-36.49,48.6,9.73-7.11,34.81-22.94,65.12-22.94Z"/></svg>