<?xml version="1.0" encoding="UTF-8"?><svg id="Icons" xmlns="http://www.w3.org/2000/svg" viewBox="0 0 300 300"><defs><style>.cls-1{fill:#00517d;}.cls-2{fill:#06aeef;}</style></defs><path class="cls-2" d="m161.3,98.61c0-6.22-5.06-11.29-11.29-11.29s-11.29,5.06-11.29,11.29,5.06,11.29,11.29,11.29,11.29-5.06,11.29-11.29Zm-11.29,7.29c-4.02,0-7.29-3.27-7.29-7.29s3.27-7.29,7.29-7.29,7.29,3.27,7.29,7.29-3.27,7.29-7.29,7.29Z"/><path class="cls-1" d="m99.81,117.01c0-17.54,9.36-34.05,24.42-43.08.95-.57,1.25-1.8.69-2.74-.57-.95-1.8-1.25-2.74-.69-3.8,2.28-7.25,5-10.33,8.07l-7.37-12.5c-.36-.61-1.02-.98-1.72-.98h-29.87s-.06,0-.1,0c-.77-2.13-2.8-3.65-5.18-3.65-3.04,0-5.52,2.47-5.52,5.51s2.47,5.52,5.52,5.52c2.29,0,4.26-1.41,5.09-3.41.06,0,.12.02.19.02h28.73l7.39,12.54c-2.56,2.97-4.78,6.22-6.64,9.66l-7.84-9.74c-.38-.47-.95-.75-1.56-.75h-7.35c-.8-2.05-2.8-3.52-5.13-3.52-3.04,0-5.52,2.47-5.52,5.52s2.47,5.51,5.52,5.51c2.33,0,4.33-1.46,5.13-3.51h6.39l8.41,10.46c-1.41,3.21-2.52,6.56-3.3,10.01h-9.24l-5.33-8.35c-.37-.58-1-.92-1.69-.92h-7.21c-.09,0-.17.01-.26.03-.8-2.07-2.8-3.54-5.14-3.54-3.04,0-5.52,2.47-5.52,5.51s2.47,5.52,5.52,5.52c2.34,0,4.35-1.47,5.14-3.54.09.01.17.03.26.03h6.12l5.33,8.35c.37.58,1,.92,1.69.92h9.59c-.38,2.55-.57,5.15-.57,7.76,0,1.23.04,2.46.13,3.69h-9.15c-.75,0-1.44.42-1.78,1.09l-5.62,11.01h-6.5s-.09.01-.14.01c-.8-2.06-2.8-3.53-5.14-3.53-3.04,0-5.52,2.47-5.52,5.52s2.47,5.51,5.52,5.51c2.34,0,4.34-1.47,5.14-3.53.05,0,.09.01.14.01h7.73c.75,0,1.44-.42,1.78-1.09l5.62-11.01h8.35c1.01,7.08,3.41,13.9,7.08,20.06.37.63,1.04.97,1.72.97.35,0,.7-.09,1.02-.28.95-.57,1.26-1.79.69-2.74-4.62-7.74-7.07-16.62-7.07-25.69Z"/><path class="cls-1" d="m231.85,162.91c-2.29,0-4.26,1.41-5.09,3.41-.06,0-.12-.02-.19-.02h-28.73l-7.63-12.95c2.6-2.88,4.87-6.01,6.79-9.36l7.93,9.86c.38.47.95.75,1.56.75h7.35c.8,2.05,2.8,3.52,5.13,3.52,3.04,0,5.52-2.47,5.52-5.52s-2.47-5.52-5.52-5.52c-2.34,0-4.33,1.46-5.13,3.52h-6.4l-8.42-10.47c1.51-3.19,2.71-6.54,3.57-9.99h8.98l5.33,8.35c.37.58,1,.92,1.69.92h7.21c.09,0,.18-.01.26-.03.8,2.07,2.8,3.54,5.14,3.54,3.04,0,5.52-2.47,5.52-5.52s-2.47-5.51-5.52-5.51c-2.34,0-4.35,1.47-5.14,3.54-.09-.01-.17-.03-.26-.03h-6.12l-5.33-8.35c-.37-.58-1-.92-1.69-.92h-9.23c.51-2.98.77-6.03.77-9.12,0-.78-.04-1.56-.07-2.33h9.07c.75,0,1.44-.42,1.78-1.09l5.62-11.01h6.5s.09-.01.14-.01c.8,2.06,2.8,3.53,5.14,3.53,3.04,0,5.52-2.47,5.52-5.52s-2.47-5.52-5.52-5.52c-2.34,0-4.34,1.47-5.14,3.53-.05,0-.09-.01-.14-.01h-7.73c-.75,0-1.44.42-1.78,1.09l-5.62,11.01h-8.15c-.8-6.76-2.85-13.35-6.07-19.32-.52-.97-1.74-1.33-2.71-.81-.97.52-1.34,1.74-.81,2.71,3.91,7.25,5.97,15.47,5.97,23.76,0,18.18-9.87,34.99-25.76,43.86-.96.54-1.31,1.76-.77,2.72.37.66,1.05,1.02,1.75,1.02.33,0,.66-.08.97-.25,4.02-2.24,7.67-4.96,10.92-8.05l7.66,13c.36.61,1.02.98,1.72.98h29.87s.06,0,.1,0c.77,2.13,2.8,3.65,5.18,3.65,3.04,0,5.52-2.47,5.52-5.52s-2.47-5.51-5.52-5.51Z"/><path class="cls-2" d="m159.35,197.48v-22.46l7.65-7.79c.37-.37.57-.88.57-1.4v-12.18c14.05-6.74,23.06-20.98,23.06-36.64,0-22.4-18.22-40.63-40.63-40.63s-40.63,18.22-40.63,40.63c0,14.97,8.12,28.58,21.24,35.71v66.19c0,.53.21,1.04.59,1.41l14.16,14.16c.38.38.89.59,1.41.59.05,0,.1,0,.16,0,.58-.05,1.12-.35,1.46-.82l19.05-26.27c.58-.8.49-1.89-.2-2.59l-7.91-7.91Zm-11.36,30.53v-70.57c0-1.1-.9-2-2-2s-2,.9-2,2v70.01l-9.37-9.37v-66.03c0-.5-.19-.97-.5-1.32-.15-.5-.49-.95-.99-1.21-12.18-6.33-19.75-18.8-19.75-32.52,0-20.2,16.43-36.63,36.63-36.63s36.63,16.43,36.63,36.63c0,14.51-8.58,27.67-21.86,33.53-.72.32-1.19,1.04-1.19,1.83v12.65s-7.66,7.79-7.66,7.79c-.37.37-.57.88-.57,1.4v24.11c0,.53.21,1.04.59,1.41l7.29,7.29-15.23,20.99Z"/></svg>