<?xml version="1.0" encoding="UTF-8"?><svg id="Icons" xmlns="http://www.w3.org/2000/svg" viewBox="0 0 300 300"><defs><style>.cls-1{fill:#00517d;}.cls-2{fill:#00aeef;}.cls-3{fill:#06aeef;}</style></defs><path class="cls-3" d="m115.65,111.59v14.93h-4v-14.93c0-18.63-15.16-33.79-33.79-33.79s-33.78,15.16-33.78,33.79v15.33c0,1.11-.9,2-2,2s-2-.89-2-2v-15.33c0-20.84,16.95-37.79,37.78-37.79s37.79,16.95,37.79,37.79Z"/><path class="cls-1" d="m206.21,126.52h-112.48c-3.92,0-7.11,3.19-7.11,7.11v86.91c0,3.92,3.19,7.11,7.11,7.11h112.48c3.92,0,7.11-3.19,7.11-7.11v-86.91c0-3.92-3.19-7.11-7.11-7.11Zm3.11,94.02c0,1.71-1.4,3.11-3.11,3.11h-112.48c-1.71,0-3.11-1.4-3.11-3.11v-86.91c0-1.72,1.4-3.11,3.11-3.11h112.48c1.71,0,3.11,1.39,3.11,3.11v86.91Z"/><path class="cls-2" d="m149.97,157.19c-5.33,0-9.67,4.34-9.67,9.67,0,4.65,3.3,8.54,7.67,9.46v18.66c0,1.1.9,2,2,2s2-.9,2-2v-18.66c4.37-.92,7.67-4.81,7.67-9.46,0-5.33-4.34-9.67-9.67-9.67Zm0,15.34c-3.13,0-5.67-2.55-5.67-5.67s2.54-5.67,5.67-5.67,5.67,2.54,5.67,5.67-2.54,5.67-5.67,5.67Z"/></svg>